<svg width="24" height="24" viewBox="0 0 24 24" fill="none" xmlns="http://www.w3.org/2000/svg">
<path d="M15.53 14.13C15.437 14.0363 15.3264 13.9619 15.2046 13.9111C15.0827 13.8603 14.952 13.8342 14.82 13.8342C14.688 13.8342 14.5573 13.8603 14.4354 13.9111C14.3135 13.9619 14.2029 14.0363 14.11 14.13C13.9237 14.3174 13.8192 14.5708 13.8192 14.835C13.8192 15.0992 13.9237 15.3526 14.11 15.54L20.29 21.72C20.3829 21.8137 20.4935 21.8881 20.6154 21.9389C20.7373 21.9897 20.868 22.0158 21 22.0158C21.132 22.0158 21.2627 21.9897 21.3846 21.9389C21.5064 21.8881 21.617 21.8137 21.71 21.72C21.8962 21.5326 22.0008 21.2792 22.0008 21.015C22.0008 20.7508 21.8962 20.4974 21.71 20.31L15.53 14.13ZM16.76 11.64C17.5554 11.6393 18.3179 11.3228 18.88 10.76L21.71 7.92999C21.8962 7.74263 22.0008 7.48918 22.0008 7.22499C22.0008 6.96081 21.8962 6.70736 21.71 6.51999C21.617 6.42627 21.5064 6.35187 21.3846 6.3011C21.2627 6.25033 21.132 6.2242 21 6.2242C20.868 6.2242 20.7373 6.25033 20.6154 6.3011C20.4935 6.35187 20.3829 6.42627 20.29 6.51999L17.46 9.34999C17.2726 9.53625 17.0192 9.64079 16.755 9.64079C16.4908 9.64079 16.2373 9.53625 16.05 9.34999L19.59 5.80999C19.7762 5.62263 19.8808 5.36918 19.8808 5.10499C19.8808 4.84081 19.7762 4.58736 19.59 4.39999C19.497 4.30627 19.3864 4.23187 19.2646 4.1811C19.1427 4.13033 19.012 4.1042 18.88 4.1042C18.748 4.1042 18.6173 4.13033 18.4954 4.1811C18.3735 4.23187 18.2629 4.30627 18.17 4.39999L14.64 7.92999C14.4537 7.74263 14.3492 7.48918 14.3492 7.22499C14.3492 6.96081 14.4537 6.70736 14.64 6.51999L17.46 3.68999C17.5647 3.60035 17.6497 3.49003 17.7097 3.36596C17.7697 3.2419 17.8035 3.10677 17.8088 2.96905C17.8141 2.83133 17.7909 2.694 17.7406 2.56567C17.6903 2.43735 17.6141 2.3208 17.5166 2.22334C17.4192 2.12589 17.3026 2.04963 17.1743 1.99936C17.046 1.94908 16.9086 1.92588 16.7709 1.9312C16.6332 1.93652 16.4981 1.97025 16.374 2.03027C16.2499 2.09029 16.1396 2.17531 16.05 2.27999L13.22 5.10999C12.6582 5.6725 12.3426 6.43499 12.3426 7.22999C12.3426 8.025 12.6582 8.78749 13.22 9.34999V9.34999L12 10.59L10.44 9.04999C10.8827 8.25095 11.0502 7.32839 10.9164 6.42472C10.7827 5.52106 10.3552 4.68654 9.69998 4.04999C8.25998 2.60999 4.52998 0.999994 2.76998 2.78999C1.00998 4.57999 2.59998 8.26999 3.99998 9.71999C4.78181 10.5046 5.83297 10.9623 6.93998 11H7.07998C7.7561 10.9904 8.41797 10.8042 8.99998 10.46L10.57 12L2.28998 20.28C2.1974 20.3732 2.12409 20.4838 2.07424 20.6054C2.02438 20.7269 1.99896 20.8571 1.99943 20.9885C1.99989 21.1199 2.02623 21.2499 2.07694 21.3712C2.12765 21.4924 2.20174 21.6024 2.29498 21.695C2.38822 21.7876 2.49878 21.8609 2.62035 21.9107C2.74192 21.9606 2.87212 21.986 3.00352 21.9855C3.13491 21.9851 3.26493 21.9587 3.38614 21.908C3.50736 21.8573 3.6174 21.7832 3.70998 21.69L12.71 12.69L14.63 10.77C14.9103 11.048 15.2427 11.268 15.6083 11.4173C15.9738 11.5666 16.3652 11.6423 16.76 11.64V11.64ZM8.42998 8.43999C8.24264 8.62623 8.01906 8.77203 7.77308 8.86835C7.52711 8.96468 7.26397 9.00948 6.99998 8.99999C6.41539 8.97482 5.86334 8.72389 5.45998 8.29999C4.37998 7.21999 3.61998 4.76999 4.18998 4.19999C4.37931 4.05718 4.61323 3.98629 4.84998 3.99999C6.12628 4.10172 7.33432 4.61795 8.28998 5.46999C8.69826 5.84771 8.94174 6.37075 8.96793 6.92634C8.99411 7.48192 8.80091 8.02554 8.42998 8.43999V8.43999Z" fill="black"/>
</svg>
